<svg aria-hidden="true" style="position:absolute;width:0;height:0" xmlns="http://www.w3.org/2000/svg" overflow="hidden">
    <defs>
        <symbol id="icon-sending" viewBox="0 0 32 32">
            <path fill="var(--color1, #fff)" d="M32 0L0 18l10.227 3.787L26 7 14.003 23.187l.009.003-.012-.003V32l5.735-6.691L27.002 28l4.999-28z"/>
        </symbol>
        <symbol id="icon-agreement" viewBox="0 0 32 32">
            <path fill="var(--color1, #fff)" stroke="var(--color1, #fff)" stroke-width=".492" d="M4.817 15.39l-.17-.162-.17.16-2.373 2.25.187.18 8.775 8.369.17-.162L29.894 8.226l-.187-.177-2.341-2.233-.17.162-16.13 15.375-6.25-5.962z"/>
        </symbol>
        <symbol id="icon-checkbox" viewBox="0 0 32 32">
            <path d="M28.444 4.334v23.332H3.556V4.334h24.888zm0-3.334H3.556C1.6 1 0 2.5 0 4.334v23.332C0 29.5 1.6 31 3.556 31h24.888C30.4 31 32 29.5 32 27.666V4.334C32 2.5 30.4 1 28.444 1z"/>
        </symbol>
        <symbol id="icon-modal-envelope" viewBox="0 0 32 32">
            <path d="M28 4H4a2.997 2.997 0 00-2.986 3L1 25c0 1.65 1.35 3 3 3h24c1.65 0 3-1.35 3-3V7c0-1.65-1.35-3-3-3zm-.6 6.376l-10.604 6.628c-.226.141-.501.225-.795.225s-.569-.084-.801-.229l.006.004L4.6 10.374a1.275 1.275 0 111.354-2.157l-.005-.003 10.05 6.286 10.05-6.286a1.274 1.274 0 111.356 2.157l-.006.003z"/>
        </symbol>
        <symbol id="icon-phone" viewBox="0 0 32 32">
            <path d="M27.419 20.853l-4.201-.48a3.28 3.28 0 00-2.713.941l-3.045 3.045c-4.718-2.435-8.467-6.185-10.835-10.764l-.065-.139L9.623 10.4a3.281 3.281 0 00.94-2.729l.002.016-.48-4.169A3.314 3.314 0 006.798.592H3.933C2.063.587.509 2.142.623 4.009c.878 14.126 12.176 25.408 26.286 26.286 1.867.114 3.424-1.44 3.424-3.31v-2.862-.016a3.279 3.279 0 00-2.897-3.256l-.015-.001z"/>
        </symbol>
        <symbol id="icon-person" viewBox="0 0 32 32">
            <path d="M16 16a8 8 0 000-16 8 8 0 000 16zm0 4c-5.339 0-16 2.68-16 8v2c0 1.099.901 2 2 2h28c1.099 0 2-.901 2-2v-2c0-5.32-10.661-8-16-8z"/>
        </symbol>
    </defs>
</svg>